<?xml version="1.0" encoding="utf-8"?>
<!-- Generator: Adobe Illustrator 27.5.0, SVG Export Plug-In . SVG Version: 6.00 Build 0)  -->
<svg version="1.1" xmlns="http://www.w3.org/2000/svg" xmlns:xlink="http://www.w3.org/1999/xlink" x="0px" y="0px"
	 viewBox="0 0 500 500" style="enable-background:new 0 0 500 500;" xml:space="preserve">
<g id="Table">
	<g id="Table_00000137091804634140168470000016513982016785448104_">
		
			<path style="fill:#FFFFFF;stroke:#FF95FB;stroke-width:1.5;stroke-linecap:round;stroke-linejoin:round;stroke-miterlimit:10;" d="
			M203.031,282.134v-32.865c0-14.49,11.747-26.236,26.236-26.236h184.137c14.49,0,26.236,11.747,26.236,26.236v32.865"/>
		<g>
			<path style="fill:#FF95FB;" d="M448.088,288.828H139.576v-0.788c0-3.198,2.592-5.79,5.79-5.79h296.932
				c3.198,0,5.79,2.592,5.79,5.79V288.828z"/>
			<path style="fill:none;stroke:#303030;stroke-width:1.5;stroke-linecap:round;stroke-linejoin:round;stroke-miterlimit:10;" d="
				M369.961,282.25c3.633,0,6.578,2.945,6.578,6.578"/>
			<rect x="139.576" y="288.828" style="fill:#303030;" width="308.512" height="3.323"/>
		</g>
		<g>
			<g>
				<polygon style="fill:#FF95FB;" points="357.94,476.508 354.884,476.508 351.619,292.19 357.94,292.19 				"/>
				<polygon style="fill:#303030;" points="357.94,476.508 360.996,476.508 364.261,292.19 357.94,292.19 				"/>
			</g>
			<g>
				<polygon style="fill:#FF95FB;" points="422.227,476.508 419.171,476.508 415.906,292.19 422.227,292.19 				"/>
				<polygon style="fill:#303030;" points="422.227,476.508 425.283,476.508 428.548,292.19 422.227,292.19 				"/>
			</g>
		</g>
		<g>
			<g>
				<polygon style="fill:#FF95FB;" points="166.465,476.508 163.409,476.508 160.144,292.19 166.465,292.19 				"/>
				<polygon style="fill:#303030;" points="166.465,476.508 169.521,476.508 172.786,292.19 166.465,292.19 				"/>
			</g>
			<g>
				<polygon style="fill:#FF95FB;" points="230.752,476.508 227.696,476.508 224.431,292.19 230.752,292.19 				"/>
				<polygon style="fill:#303030;" points="230.752,476.508 233.808,476.508 237.073,292.19 230.752,292.19 				"/>
			</g>
		</g>
	</g>
</g>
<g id="Device">
	<g id="Computer">
		<g>
			<g>
				<path style="fill:#303030;" d="M298.331,220.4H266.89c-1.647,0-2.841,1.569-2.402,3.157l12.764,46.106
					c1.754,6.336-3.012,12.601-9.586,12.601l0,0h35.989h0.624c6.574,0,11.34-6.265,9.586-12.601l-13.133-47.435
					C300.434,221.147,299.452,220.4,298.331,220.4z"/>
				<path style="fill:#00826F;" d="M295.603,216.684H258.99l14.512,52.419c1.315,4.749-2.257,9.444-7.185,9.444h-3.276h35.989h3.899
					c4.927,0,8.499-4.695,7.185-9.444L295.603,216.684z"/>
				<polygon style="fill:#303030;" points="303.896,282.263 306.759,278.548 288.201,278.548 288.201,282.254 				"/>
				<path style="fill:#00826F;" d="M256.956,278.548h33.758c1.626,0,2.943,1.318,2.943,2.943v0.772h-39.645v-0.772
					C254.013,279.865,255.331,278.548,256.956,278.548z"/>
				
					<line style="fill:#FFFFFF;stroke:#303030;stroke-width:1.5;stroke-linecap:round;stroke-linejoin:round;stroke-miterlimit:10;" x1="257.728" y1="278.548" x2="307.684" y2="278.548"/>
				<path style="fill:none;stroke:#303030;stroke-width:1.5;stroke-linecap:round;stroke-linejoin:round;stroke-miterlimit:10;" d="
					M257.728,278.548"/>
				<polygon style="fill:#303030;" points="304.558,248.954 267.945,248.954 269.843,255.809 306.456,255.809 				"/>
			</g>
			<g>
				<path style="fill:#303030;" d="M349.004,251.331H215.451c-5.769,0-10.268-4.677-10.048-10.446l3.124-82.097
					c0.219-5.769,5.074-10.445,10.843-10.445h133.553c5.769,0,10.267,4.676,10.048,10.445l-3.124,82.097
					C359.628,246.655,354.773,251.331,349.004,251.331z"/>
				<path style="fill:#00826F;" d="M346.541,251.331H212.988c-5.769,0-10.267-4.677-10.048-10.446l3.124-82.097
					c0.22-5.769,5.074-10.445,10.843-10.445H350.46c5.769,0,10.267,4.676,10.048,10.445l-3.124,82.097
					C357.164,246.655,352.31,251.331,346.541,251.331z"/>
				<path style="fill:#FFFFFF;" d="M345.416,249.653H214.24c-3.831,0-6.819-3.106-6.674-6.938l3.152-82.849
					c0.146-3.831,3.37-6.938,7.202-6.938h131.176c3.832,0,6.819,3.106,6.674,6.938l-3.152,82.849
					C352.472,246.547,349.248,249.653,345.416,249.653z"/>
				
					<path style="fill:#FFFFFF;stroke:#00826F;stroke-width:1.5;stroke-linecap:round;stroke-linejoin:round;stroke-miterlimit:10;" d="
					M341.58,236.151H219.109c-3.077,0-5.476-2.494-5.359-5.571l2.532-66.529c0.117-3.077,2.706-5.571,5.783-5.571h122.471
					c3.077,0,5.476,2.494,5.359,5.571l-2.531,66.529C347.246,233.657,344.656,236.151,341.58,236.151z"/>
				<path style="fill:#00826F;" d="M344.535,158.48H222.064c-3.077,0-5.666,2.494-5.783,5.571l-0.141,3.713h133.613l0.141-3.713
					C350.011,160.974,347.612,158.48,344.535,158.48z"/>
				<path style="fill:#00826F;" d="M202.948,241.547c0.135,5.459,4.494,9.785,10.04,9.785h133.553
					c5.546,0,10.234-4.325,10.784-9.785H202.948z"/>
			</g>
		</g>
		<path style="fill:#303030;" d="M244.259,278.534h-66.085c-1.807,0-3.271,1.464-3.271,3.271v0.445h72.627v-0.445
			C247.531,279.998,246.066,278.534,244.259,278.534z"/>
	</g>
</g>
<g id="Tab">
	<g id="Window_00000143616615883258630750000009234779329160555709_">
		<g id="Window_00000049220147856309478660000013373738180081638334_">
			<g>
				
					<path style="fill:#FFFFFF;stroke:#00826F;stroke-width:1.5;stroke-linecap:round;stroke-linejoin:round;stroke-miterlimit:10;" d="
					M164.231,195.869V33.577c0-3.894,3.156-7.05,7.05-7.05h266.737c3.894,0,7.05,3.157,7.05,7.05V195.87
					c0,3.894-3.156,7.05-7.05,7.05H171.281C167.387,202.92,164.231,199.763,164.231,195.869z"/>
				
					<line style="fill:#FFFFFF;stroke:#00826F;stroke-width:1.5;stroke-linecap:round;stroke-linejoin:round;stroke-miterlimit:10;" x1="164.231" y1="42.348" x2="445.069" y2="42.348"/>
				
					<path style="fill:#F55571;stroke:#F55571;stroke-width:1.5;stroke-linecap:round;stroke-linejoin:round;stroke-miterlimit:10;" d="
					M437.636,34.438c0,1.841-1.492,3.333-3.333,3.333c-1.841,0-3.333-1.492-3.333-3.333c0-1.841,1.492-3.333,3.333-3.333
					C436.144,31.105,437.636,32.597,437.636,34.438z"/>
				
					<path style="fill:#00826F;stroke:#00826F;stroke-width:1.5;stroke-linecap:round;stroke-linejoin:round;stroke-miterlimit:10;" d="
					M423.97,34.438c0,1.841-1.492,3.333-3.333,3.333s-3.333-1.492-3.333-3.333c0-1.841,1.492-3.333,3.333-3.333
					S423.97,32.597,423.97,34.438z"/>
				
					<path style="fill:#FF95FB;stroke:#FF95FB;stroke-width:1.5;stroke-linecap:round;stroke-linejoin:round;stroke-miterlimit:10;" d="
					M410.305,34.438c0,1.841-1.492,3.333-3.333,3.333s-3.333-1.492-3.333-3.333c0-1.841,1.492-3.333,3.333-3.333
					S410.305,32.597,410.305,34.438z"/>
			</g>
		</g>
		<g>
			<path style="fill:#00826F;" d="M428.97,82.826H178.237c-1.841,0-3.333-1.492-3.333-3.333V55.597c0-1.841,1.492-3.333,3.333-3.333
				H428.97c1.841,0,3.333,1.492,3.333,3.333v23.895C432.303,81.333,430.811,82.826,428.97,82.826z"/>
			<g>
				<path style="fill:#FFFFFF;" d="M190.779,74.567c-1.026,0-1.972-0.18-2.838-0.539c-0.866-0.359-1.626-0.859-2.28-1.501
					c-0.654-0.641-1.161-1.388-1.52-2.241c-0.359-0.853-0.539-1.773-0.539-2.761c0-1,0.179-1.924,0.539-2.771
					c0.359-0.847,0.859-1.587,1.501-2.222c0.641-0.635,1.395-1.128,2.261-1.481c0.866-0.353,1.812-0.529,2.838-0.529
					c1.013,0,1.953,0.177,2.818,0.529c0.866,0.353,1.622,0.847,2.27,1.481c0.647,0.635,1.151,1.379,1.51,2.232
					c0.359,0.853,0.539,1.78,0.539,2.78c0,0.988-0.18,1.908-0.539,2.761c-0.359,0.853-0.859,1.597-1.5,2.232
					c-0.642,0.635-1.395,1.132-2.261,1.491C192.713,74.388,191.779,74.567,190.779,74.567z M190.74,71.816
					c0.808,0,1.517-0.179,2.126-0.539c0.609-0.359,1.081-0.863,1.414-1.51c0.334-0.648,0.5-1.395,0.5-2.242
					c0-0.641-0.096-1.222-0.288-1.741c-0.192-0.52-0.468-0.968-0.827-1.347c-0.359-0.378-0.786-0.667-1.279-0.866
					c-0.494-0.199-1.043-0.298-1.645-0.298c-0.808,0-1.517,0.176-2.126,0.529c-0.609,0.353-1.081,0.847-1.414,1.482
					c-0.334,0.635-0.5,1.382-0.5,2.241c0,0.642,0.096,1.225,0.288,1.751c0.192,0.526,0.465,0.978,0.818,1.356
					c0.353,0.378,0.779,0.67,1.279,0.876C189.586,71.714,190.137,71.816,190.74,71.816z"/>
				<path style="fill:#FFFFFF;" d="M208.364,60.753v8.258l-6.445-8.258h-2.117V72.85c0,0.821,0.666,1.487,1.487,1.487h0.047
					c0.821,0,1.487-0.666,1.487-1.487v-6.648l5.903,7.563c0.282,0.361,0.714,0.572,1.172,0.572l0,0c0.821,0,1.487-0.666,1.487-1.487
					V60.753H208.364z"/>
				<path style="fill:#FFFFFF;" d="M214.001,73.009V60.753h3.021v13.584h-1.693C214.596,74.337,214.001,73.742,214.001,73.009z
					 M216.329,74.337v-2.655h5.387c0.733,0,1.328,0.594,1.328,1.328l0,0c0,0.733-0.594,1.328-1.328,1.328H216.329z"/>
				<path style="fill:#FFFFFF;" d="M224.795,72.826V60.753h3.021v12.073c0,0.834-0.676,1.511-1.51,1.511l0,0
					C225.471,74.337,224.795,73.66,224.795,72.826z"/>
				<path style="fill:#FFFFFF;" d="M238.994,60.753v8.258l-6.445-8.258h-2.117V72.85c0,0.821,0.666,1.487,1.487,1.487h0.047
					c0.821,0,1.487-0.666,1.487-1.487v-6.648l5.903,7.563c0.282,0.361,0.714,0.572,1.172,0.572l0,0c0.821,0,1.487-0.666,1.487-1.487
					V60.753H238.994z"/>
				<path style="fill:#FFFFFF;" d="M244.631,73.076V60.753h3.021v13.584h-1.761C245.195,74.337,244.631,73.772,244.631,73.076z
					 M246.94,63.35v-2.597h6.089c0.696,0,1.26,0.564,1.26,1.26v0.077c0,0.696-0.564,1.26-1.26,1.26H246.94z M246.94,68.661V66.14
					h5.512c0.696,0,1.26,0.564,1.26,1.26l0,0c0,0.696-0.564,1.26-1.26,1.26H246.94z M246.94,74.337V71.72h6.186
					c0.696,0,1.26,0.564,1.26,1.26v0.096c0,0.696-0.564,1.26-1.26,1.26H246.94z"/>
				<path style="fill:#FFFFFF;" d="M260.888,63.389v-2.636h11.525v2.636H260.888z M265.14,72.826V60.945h3.021v11.881
					c0,0.834-0.676,1.511-1.51,1.511l0,0C265.816,74.337,265.14,73.66,265.14,72.826z"/>
				<path style="fill:#FFFFFF;" d="M274.105,73.038V60.753h3.021v13.584h-1.722C274.687,74.337,274.105,73.755,274.105,73.038z
					 M276.414,63.35v-2.597h6.051c0.717,0,1.299,0.581,1.299,1.299l0,0c0,0.717-0.581,1.299-1.299,1.299H276.414z M276.414,68.661
					V66.14h6.772v2.521H276.414z M276.414,74.337V71.72h6.147c0.717,0,1.299,0.581,1.299,1.299v0.02
					c0,0.717-0.581,1.299-1.299,1.299H276.414z"/>
				<path style="fill:#FFFFFF;" d="M289.671,74.548c-1.116,0-2.075-0.183-2.876-0.548c-0.404-0.184-0.791-0.416-1.161-0.696
					c-0.61-0.463-0.623-1.383-0.079-1.922l0.118-0.117c0.453-0.448,1.169-0.509,1.677-0.124c0.21,0.159,0.429,0.298,0.657,0.415
					c0.532,0.276,1.151,0.414,1.857,0.414c0.641,0,1.138-0.115,1.491-0.346c0.352-0.231,0.529-0.551,0.529-0.962
					c0-0.372-0.115-0.673-0.346-0.904c-0.231-0.231-0.536-0.43-0.914-0.597c-0.379-0.166-0.796-0.327-1.251-0.481
					c-0.455-0.154-0.907-0.33-1.357-0.529c-0.449-0.199-0.863-0.449-1.241-0.751c-0.378-0.301-0.683-0.68-0.914-1.135
					c-0.231-0.455-0.346-1.029-0.346-1.722c0-0.834,0.202-1.552,0.606-2.155c0.404-0.603,0.965-1.061,1.684-1.376
					c0.718-0.314,1.545-0.471,2.482-0.471c0.949,0,1.818,0.167,2.607,0.5c0.247,0.104,0.48,0.221,0.7,0.349
					c0.727,0.424,0.823,1.443,0.225,2.035l-0.118,0.117c-0.444,0.44-1.123,0.455-1.642,0.107c-0.138-0.093-0.277-0.173-0.415-0.242
					c-0.417-0.205-0.888-0.308-1.414-0.308c-0.526,0-0.943,0.1-1.25,0.298c-0.308,0.199-0.462,0.484-0.462,0.856
					c0,0.347,0.115,0.625,0.346,0.837c0.231,0.211,0.536,0.394,0.914,0.548c0.378,0.154,0.795,0.308,1.25,0.462
					c0.455,0.154,0.907,0.334,1.357,0.539c0.449,0.205,0.862,0.465,1.241,0.779c0.378,0.314,0.683,0.712,0.914,1.193
					c0.231,0.481,0.346,1.075,0.346,1.78c0,1.296-0.462,2.312-1.385,3.05C292.576,74.18,291.3,74.548,289.671,74.548z"/>
				<path style="fill:#FFFFFF;" d="M295.385,63.389v-2.636h11.525v2.636H295.385z M299.637,72.826V60.945h3.021v11.881
					c0,0.834-0.676,1.511-1.51,1.511l0,0C300.313,74.337,299.637,73.66,299.637,72.826z"/>
			</g>
			<g>
				<path style="fill:#303030;" d="M394.222,69.059v-1.829h3.878v1.829H394.222z M396.092,75.865v-8.636h2.145v8.636
					c0,0.592-0.48,1.073-1.073,1.073l0,0C396.572,76.938,396.092,76.458,396.092,75.865z"/>
				<path style="fill:#303030;" d="M402.806,75.095l1.922-1.911c0.375-0.376,0.676-0.722,0.901-1.039
					c0.224-0.316,0.387-0.637,0.488-0.962c0.101-0.325,0.151-0.681,0.151-1.066c0-0.614-0.135-1.15-0.406-1.609
					c-0.27-0.458-0.651-0.811-1.141-1.059c-0.491-0.248-1.071-0.371-1.74-0.371c-0.771,0-1.453,0.165-2.049,0.495
					c-0.596,0.33-1.087,0.82-1.472,1.471l1.444,1.252c0.284-0.468,0.58-0.805,0.887-1.011c0.307-0.206,0.653-0.309,1.038-0.309
					c0.395,0,0.713,0.108,0.956,0.323c0.243,0.215,0.365,0.511,0.365,0.887c0,0.175-0.032,0.346-0.096,0.516
					c-0.064,0.17-0.165,0.35-0.303,0.543c-0.138,0.192-0.321,0.403-0.55,0.632l-3.484,3.6c-0.155,0.161-0.242,0.376-0.242,0.599l0,0
					c0,0.476,0.386,0.862,0.862,0.862h5.202c0.509,0,0.921-0.413,0.921-0.921l0,0c0-0.509-0.412-0.921-0.921-0.921H402.806z"/>
				<path style="fill:#303030;" d="M408.894,73.019c-0.358,0-0.656-0.124-0.894-0.371c-0.238-0.247-0.357-0.545-0.357-0.894
					c0-0.367,0.119-0.672,0.357-0.914c0.238-0.243,0.537-0.365,0.894-0.365c0.367,0,0.666,0.122,0.9,0.365
					c0.234,0.243,0.351,0.548,0.351,0.914c0,0.349-0.117,0.646-0.351,0.894C409.561,72.895,409.261,73.019,408.894,73.019z
					 M408.894,77.089c-0.358,0-0.656-0.124-0.894-0.371c-0.238-0.248-0.357-0.546-0.357-0.894c0-0.367,0.119-0.671,0.357-0.914
					c0.238-0.243,0.537-0.364,0.894-0.364c0.367,0,0.666,0.121,0.9,0.364c0.234,0.243,0.351,0.548,0.351,0.914
					c0,0.349-0.117,0.646-0.351,0.894C409.561,76.965,409.261,77.089,408.894,77.089z"/>
				<path style="fill:#303030;" d="M415.481,77.089c-0.779,0-1.485-0.21-2.117-0.632c-0.633-0.422-1.13-1.011-1.492-1.767
					c-0.362-0.757-0.543-1.629-0.543-2.62c0-0.999,0.179-1.872,0.537-2.62c0.357-0.747,0.848-1.329,1.472-1.746
					c0.623-0.417,1.329-0.626,2.117-0.626c0.798,0,1.508,0.209,2.132,0.626c0.623,0.417,1.116,1.001,1.478,1.754
					c0.362,0.752,0.543,1.627,0.543,2.627s-0.181,1.875-0.543,2.627c-0.362,0.751-0.852,1.336-1.471,1.753
					C416.973,76.881,416.269,77.089,415.481,77.089z M415.467,75.178c0.403,0,0.752-0.117,1.045-0.35
					c0.293-0.234,0.52-0.582,0.68-1.045c0.161-0.463,0.241-1.029,0.241-1.698c0-0.679-0.08-1.247-0.241-1.705
					c-0.16-0.458-0.387-0.804-0.68-1.038c-0.294-0.234-0.646-0.351-1.059-0.351c-0.394,0-0.74,0.115-1.038,0.344
					c-0.298,0.229-0.525,0.574-0.681,1.032c-0.156,0.458-0.234,1.027-0.234,1.705c0,0.679,0.078,1.247,0.234,1.705
					c0.156,0.458,0.383,0.806,0.681,1.045C414.713,75.059,415.064,75.178,415.467,75.178z"/>
				<path style="fill:#303030;" d="M426.956,72.297c-0.233-0.426-0.548-0.757-0.942-0.99c-0.335-0.199-0.709-0.308-1.117-0.338
					l2.232-2.543v-1.196h-6.257v1.829h3.309l-1.653,1.941c-0.12,0.141-0.186,0.32-0.186,0.504v0.008
					c0,0.459,0.395,0.814,0.853,0.774c0.069-0.006,0.127-0.01,0.165-0.01c0.376,0,0.699,0.059,0.969,0.179
					c0.27,0.119,0.477,0.286,0.619,0.502s0.213,0.474,0.213,0.777c0,0.302-0.071,0.563-0.213,0.784
					c-0.142,0.22-0.337,0.39-0.584,0.509c-0.248,0.119-0.541,0.178-0.88,0.178c-0.376,0-0.731-0.08-1.066-0.241
					c-0.084-0.04-0.162-0.083-0.236-0.129c-0.379-0.237-0.879-0.145-1.195,0.171l0,0c-0.435,0.435-0.341,1.163,0.188,1.478
					c0.16,0.095,0.329,0.18,0.507,0.254c0.559,0.233,1.173,0.35,1.843,0.35c0.76,0,1.423-0.137,1.987-0.412
					c0.564-0.275,1.004-0.66,1.32-1.155c0.317-0.495,0.474-1.064,0.474-1.705C427.307,73.23,427.19,72.723,426.956,72.297z"/>
			</g>
		</g>
		<g>
			<g>
				<path style="fill:#F55571;" d="M186.176,99.731c0,3.113-2.523,5.636-5.636,5.636c-3.113,0-5.636-2.523-5.636-5.636
					c0-3.113,2.523-5.636,5.636-5.636C183.652,94.095,186.176,96.618,186.176,99.731z"/>
				<g>
					
						<line style="fill:none;stroke:#303030;stroke-width:2;stroke-linecap:round;stroke-linejoin:round;stroke-miterlimit:10;" x1="194.78" y1="97.185" x2="413.606" y2="97.185"/>
					
						<line style="fill:none;stroke:#303030;stroke-width:2;stroke-linecap:round;stroke-linejoin:round;stroke-miterlimit:10;" x1="194.483" y1="111.941" x2="267.945" y2="111.941"/>
					
						<line style="fill:none;stroke:#303030;stroke-width:2;stroke-linecap:round;stroke-linejoin:round;stroke-miterlimit:10;" x1="194.78" y1="104.563" x2="413.606" y2="104.563"/>
				</g>
				<g>
					<g>
						
							<rect x="194.78" y="123.567" style="fill:none;stroke:#303030;stroke-width:2;stroke-linecap:round;stroke-linejoin:round;stroke-miterlimit:10;" width="7.825" height="7.825"/>
						
							<line style="fill:none;stroke:#303030;stroke-width:2;stroke-linecap:round;stroke-linejoin:round;stroke-miterlimit:10;" x1="208.975" y1="127.479" x2="249.406" y2="127.479"/>
					</g>
					<g>
						
							<rect x="276.396" y="123.567" style="fill:#00826F;stroke:#303030;stroke-width:2;stroke-linecap:round;stroke-linejoin:round;stroke-miterlimit:10;" width="7.825" height="7.825"/>
						
							<line style="fill:none;stroke:#303030;stroke-width:2;stroke-linecap:round;stroke-linejoin:round;stroke-miterlimit:10;" x1="290.591" y1="127.479" x2="331.021" y2="127.479"/>
					</g>
					<g>
						
							<rect x="358.012" y="123.567" style="fill:none;stroke:#303030;stroke-width:2;stroke-linecap:round;stroke-linejoin:round;stroke-miterlimit:10;" width="7.825" height="7.825"/>
						
							<line style="fill:none;stroke:#303030;stroke-width:2;stroke-linecap:round;stroke-linejoin:round;stroke-miterlimit:10;" x1="372.206" y1="127.479" x2="412.637" y2="127.479"/>
					</g>
				</g>
			</g>
			<g>
				<path style="fill:#F55571;" d="M186.176,154.775c0,3.113-2.523,5.636-5.636,5.636c-3.113,0-5.636-2.523-5.636-5.636
					c0-3.113,2.523-5.636,5.636-5.636C183.652,149.139,186.176,151.663,186.176,154.775z"/>
				<g>
					
						<line style="fill:none;stroke:#303030;stroke-width:2;stroke-linecap:round;stroke-linejoin:round;stroke-miterlimit:10;" x1="194.78" y1="152.229" x2="413.606" y2="152.229"/>
					
						<line style="fill:none;stroke:#303030;stroke-width:2;stroke-linecap:round;stroke-linejoin:round;stroke-miterlimit:10;" x1="194.483" y1="166.985" x2="267.945" y2="166.985"/>
					
						<line style="fill:none;stroke:#303030;stroke-width:2;stroke-linecap:round;stroke-linejoin:round;stroke-miterlimit:10;" x1="194.78" y1="159.607" x2="413.606" y2="159.607"/>
				</g>
				<g>
					<g>
						
							<rect x="194.78" y="178.611" style="fill:none;stroke:#303030;stroke-width:2;stroke-linecap:round;stroke-linejoin:round;stroke-miterlimit:10;" width="7.825" height="7.825"/>
						
							<line style="fill:none;stroke:#303030;stroke-width:2;stroke-linecap:round;stroke-linejoin:round;stroke-miterlimit:10;" x1="208.975" y1="182.523" x2="249.406" y2="182.523"/>
					</g>
					<g>
						
							<rect x="276.396" y="178.611" style="fill:none;stroke:#303030;stroke-width:2;stroke-linecap:round;stroke-linejoin:round;stroke-miterlimit:10;" width="7.825" height="7.825"/>
						
							<line style="fill:none;stroke:#303030;stroke-width:2;stroke-linecap:round;stroke-linejoin:round;stroke-miterlimit:10;" x1="290.591" y1="182.523" x2="331.021" y2="182.523"/>
					</g>
					<g>
						
							<rect x="358.012" y="178.611" style="fill:#00826F;stroke:#303030;stroke-width:2;stroke-linecap:round;stroke-linejoin:round;stroke-miterlimit:10;" width="7.825" height="7.825"/>
						
							<line style="fill:none;stroke:#303030;stroke-width:2;stroke-linecap:round;stroke-linejoin:round;stroke-miterlimit:10;" x1="372.206" y1="182.523" x2="412.637" y2="182.523"/>
					</g>
				</g>
			</g>
		</g>
		<g>
			<path style="fill:none;stroke:#FF95FB;stroke-width:2;stroke-linecap:round;stroke-linejoin:round;stroke-miterlimit:10;" d="
				M434.817,194.737L434.817,194.737c-1.388,0-2.513-1.125-2.513-2.513v-95.02c0-1.388,1.125-2.513,2.513-2.513l0,0
				c1.388,0,2.513,1.125,2.513,2.513v95.02C437.33,193.612,436.205,194.737,434.817,194.737z"/>
			<path style="fill:#FF95FB;" d="M434.817,134.79L434.817,134.79c-1.388,0-2.513-1.125-2.513-2.514V97.204
				c0-1.388,1.125-2.513,2.513-2.513l0,0c1.388,0,2.513,1.125,2.513,2.513v35.073C437.33,133.665,436.205,134.79,434.817,134.79z"/>
		</g>
	</g>
</g>
<g id="Character">
	<g id="Character_00000096045302867672035850000005740744420460298131_">
		<g id="Character_00000180332620245373176380000013015594967816954284_">
			<g id="Arm_00000182492954703272506170000000615393167077602945_">
				<g>
					<path style="fill:#D48983;" d="M87.877,197.174c11.64-1.279,16.701,5.315,27.553,22.579
						c9.944,15.818,15.774,25.764,21.79,37.288c7.22,13.829-2.685,22.228-9.257,24.06c-6.572,1.833-11.61-3.112-17.357-11.44
						c-5.382-7.799-23.327-31.86-23.327-31.86L87.877,197.174z"/>
				</g>
				<path style="fill:#303030;" d="M113.701,213.309c-9.59-14.587-17.488-22.532-29.734-16.583
					c-12.245,5.949-9.997,23.152,3.118,42.23c3.768,5.482,14.243,19.514,14.243,19.514s7.617-0.358,16.874-5.621
					c10.639-6.048,12.089-10.941,12.089-10.941S120.286,223.325,113.701,213.309z"/>
				<g>
					<path style="fill:#AD6163;" d="M198.74,272.923c0.153,0.357,0.303,0.716,0.454,1.074c0.284,0.676,0.57,1.355,0.734,2.07
						c0.161,0.7,0.163,1.537-0.371,2.017c-0.325,0.292-0.785,0.386-1.223,0.386c-1.464,0-2.783-0.91-3.772-1.989
						c-0.958-1.045-1.774-2.234-2.678-3.321c-0.952-1.146-2.054-2.144-3.163-3.134c-0.855-0.764-1.775-1.56-2.906-1.745
						c1.419,1.683,2.273,3.759,3.087,5.805c0.347,0.871,0.693,1.751,0.856,2.675c0.066,0.373,0.094,0.785-0.113,1.102
						c-0.222,0.34-0.651,0.474-1.051,0.546c-0.472,0.085-0.96,0.12-1.43,0.02c-1.173-0.249-2.003-1.261-2.765-2.187
						c-1.646-2.003-3.422-3.899-5.314-5.672c-0.609-0.571-1.234-1.133-1.735-1.801c-0.501-0.668-0.876-1.459-0.907-2.293
						c-0.009-0.232,0.013-0.476,0.137-0.672c0.128-0.203,0.347-0.327,0.557-0.443c0.79-0.436,1.503-0.873,2.373-1.09
						c1.003-0.251,1.944-0.478,2.98-0.574c3.38-0.316,7.469-0.327,10.515,1.449c1.594,0.93,2.737,2.1,3.688,3.654
						C197.497,270.111,198.136,271.511,198.74,272.923z"/>
					<g>
						<path style="fill:#00826F;" d="M186.248,266.615h-11.96c-6.631,0-12.006,5.375-12.006,12.006v2.121
							c0,0.833,0.675,1.508,1.508,1.508h32.957c0.833,0,1.508-0.675,1.508-1.508v-2.121
							C198.254,271.99,192.879,266.615,186.248,266.615z"/>
						<path style="fill:#303030;" d="M198.254,278.621h-35.972v2.121c0,0.833,0.675,1.508,1.508,1.508h32.957
							c0.833,0,1.508-0.675,1.508-1.508V278.621z"/>
						
							<path style="fill:none;stroke:#303030;stroke-width:1.5;stroke-linecap:round;stroke-linejoin:round;stroke-miterlimit:10;" d="
							M185.496,266.809c5.104,2.913,6.201,7.799,6.201,13.405"/>
					</g>
					<path style="fill:#D48983;" d="M122.508,281.042c7.08,2.795,19.522-0.838,23.917-1.85c12.073-2.78,19.251-3.927,19.251-3.927
						c2.512-0.672,6.696,0.308,9.267,0.001c2.999-0.358,6.087-1.003,8.491-2.831c0.91-0.692,1.693-1.534,2.532-2.309
						c0.826-0.763,1.806-1.501,2.93-1.5c3.322,0.003,7.169,2.575,8.837,5.396c2.077,3.513,5.199,3.092,5.199,1.85
						c0-2.128-0.894-4.12-1.839-6.026c-1.767-3.566-2.26-4.703-3.542-5.925c-1.519-1.447-4.617-3.191-6.475-4.153
						c-1.763-0.913-2.982-1.618-4.947-1.94c-2.619-0.429-5.619-0.132-11.499,0.108c-3.034,0.124-4.414,0.277-10.268,0.465
						c-14.367,0.463-35.354,0.069-35.354,0.069L122.508,281.042z"/>
					<g>
						<g>
							<path style="fill:#303030;" d="M137.835,258.668c0.33,1.135,0.631,2.29,0.729,3.471c0.099,1.198,0.005,2.393-0.205,3.573
								c-0.071,0.398,0.108,0.808,0.524,0.923c0.363,0.1,0.851-0.123,0.923-0.524c0.234-1.312,0.369-2.641,0.259-3.972
								c-0.109-1.318-0.414-2.603-0.782-3.87C139.012,257.345,137.565,257.738,137.835,258.668L137.835,258.668z"/>
						</g>
					</g>
					<path style="fill:#303030;" d="M164.362,258.4c4.771,2.042,6.177,12.903,1.314,16.865l-1.492,0.6c0,0-0.258,1.052,1.199,1.015
						c2.088-0.054,3.125-0.281,4.452-0.93c1.327-0.648,2.825-3.658,3.132-7.29c0.349-4.128-1.918-10.185-3.714-11.046
						c-2.093-1.004-3.16-0.577-5.223-0.304c-2.062,0.272-1.441,1.277-1.441,1.277L164.362,258.4z"/>
				</g>
			</g>
			<g id="Legs_00000130648284403220376070000017810669709535186572_">
				<g id="Leg_00000011748656114787106580000014219020312715992739_">
					<path style="fill:#FFC4B0;" d="M167.882,346.979c-9.045,11.372-10.922,22.696-8.289,44.243
						c2.633,21.547,4.231,43.366,1.753,52.793l23.59,2.26c0,0,4.666-21.337,10.156-42.84c5.489-21.503,9.836-36.171,10.128-44.285
						c0.292-8.114,0.428-24.378-15.384-33.321c-10.662-6.03-24.392-9.127-24.392-9.127L167.882,346.979z"/>
					<path style="fill:#303030;" d="M195.995,409.623c-22.257,1.298-35.769,0.136-35.769,0.136s-6.417-45.869,0.553-55.81h47.812
						L195.995,409.623z"/>
					<g>
						<path style="fill:#F55571;" d="M158.947,426.731c4.145-4.419,13.184,0.037,18.732,5.979c3.8,4.069,6.13,6.388,9.661,7.821
							l1.818-6.289c3.469,1.098,4.082,3.78,6.736,7.306c4.958,6.588,9.862,10.883,22.721,14.888
							c10.693,3.331,12.296,6.554,13.06,10.978c0,0-8.162,2.193-25.116,1.035c-10.299-0.703-23.009-6.222-30.274-10.548
							c-10.653-6.343-22.99-7.726-23.402-2.685c0.441-6.774,2.229-10.571,2.943-15.49
							C156.799,433.037,156.647,429.183,158.947,426.731z"/>
						
							<path style="fill:#303030;stroke:#303030;stroke-width:1.5;stroke-linecap:round;stroke-linejoin:round;stroke-miterlimit:10;" d="
							M211.421,476.686c-15.047,0-12.221,0-20.592,0c-8.371,0-15.663-3.274-23.459-6.778c-12.777-5.742-14.392-8.298-13.607-9.609
							c3.551-2.42,9.594-1.81,22.877,4.349C189.923,470.807,197.379,475.783,211.421,476.686z"/>
						
							<path style="fill:#FFFFFF;stroke:#303030;stroke-width:1.5;stroke-linecap:round;stroke-linejoin:round;stroke-miterlimit:10;" d="
							M153.1,454.389c1.209-4.214,12.533-2.831,23.186,3.513c7.265,4.326,19.975,9.845,30.274,10.548
							c16.954,1.158,25.116-1.035,25.116-1.035c0.977,0,1.087,0.773,1.513,3.168c0.426,2.395,0.855,4.803-2.915,5.48
							c-2.973,0.534-13.153,0.884-22.42,0.374c-9.64-0.531-17.737-2.713-25.55-6.823c-10.505-5.526-14.351-7.467-18.678-8.828
							c-5.194-1.634-9.073-0.986-9.864-0.487C152.971,460.798,151.845,458.762,153.1,454.389z"/>
					</g>
				</g>
				<g id="Leg_00000000933711635526723120000005682304123529305732_">
					<path style="fill:#FFC4B0;" d="M138.565,281.987c0,0,9.615,10.989,13.735,22.396c0,0,19.627,2.183,43.515,11.233
						c23.888,9.05,27.212,13.588,31.146,23.132c4.192,10.169,2.022,22.043-2.525,49.048c-3.667,21.777-8.353,41.056-10.643,48.872
						c-3.397,11.597-5.275,18.708-5.275,18.708l-22.767-13.939c0,0-0.127-11.579-1.027-25.761
						c-2.551-40.223-4.271-50.045,6.025-61.727c0,0-66.095,0-81.063,0c-19.256,0-28.388-7.117-34.882-17.694
						c-6.494-10.577-9.955-37.901,3.236-59.904C78.039,276.352,107.143,273.637,138.565,281.987z"/>
					
						<path style="fill:none;stroke:#303030;stroke-width:1.5;stroke-linecap:round;stroke-linejoin:round;stroke-miterlimit:10;" d="
						M185.75,441.439c0,0-0.127-11.579-1.027-25.761c-2.551-40.223-4.271-50.045,6.025-61.727"/>
					<g>
						<path style="fill:#F55571;" d="M184.307,426.621c4.145-4.419,13.184,0.037,18.732,5.979c3.8,4.069,6.13,6.388,9.662,7.821
							l1.818-6.289c3.469,1.098,4.083,3.78,6.737,7.307c4.958,6.587,7.218,9.663,20.076,13.668
							c10.693,3.331,12.059,6.516,12.059,12.545c0,0-4.517,1.845-21.471,0.688c-10.299-0.703-23.009-6.222-30.274-10.548
							c-10.653-6.343-22.99-7.727-23.402-2.685c0.441-6.774,2.229-10.571,2.944-15.491
							C182.159,432.927,182.006,429.073,184.307,426.621z"/>
						
							<path style="fill:none;stroke:#303030;stroke-width:1.5;stroke-linecap:round;stroke-linejoin:round;stroke-miterlimit:10;" d="
							M178.244,455.107c0.441-6.774,2.229-10.571,2.944-15.491c0.971-6.689,0.819-10.543,3.119-12.996
							c0.496-0.541,1.105-0.979,1.85-1.291"/>
						
							<path style="fill:#303030;stroke:#303030;stroke-width:1.5;stroke-linecap:round;stroke-linejoin:round;stroke-miterlimit:10;" d="
							M236.781,476.576c-15.048,0-12.221,0-20.592,0s-15.663-3.274-23.459-6.778c-12.777-5.742-14.393-8.298-13.607-9.609
							c3.551-2.42,9.594-1.81,22.877,4.349C215.283,470.697,222.738,475.673,236.781,476.576z"/>
						
							<path style="fill:#FFFFFF;stroke:#303030;stroke-width:1.5;stroke-linecap:round;stroke-linejoin:round;stroke-miterlimit:10;" d="
							M178.46,454.279c1.209-4.214,12.533-2.831,23.186,3.513c7.265,4.326,19.975,9.845,30.274,10.548
							c16.954,1.158,20.695-1.035,20.695-1.035c0.977,0,1.087,0.773,1.513,3.168c0.426,2.395,0.855,4.803-2.916,5.48
							c-2.973,0.534-8.732,0.884-17.998,0.374c-9.64-0.531-17.737-2.713-25.55-6.823c-10.505-5.526-14.351-7.467-18.678-8.829
							c-5.193-1.634-9.073-0.985-9.864-0.487C178.331,460.688,177.205,458.652,178.46,454.279z"/>
					</g>
				</g>
				<g>
					<path style="fill:#303030;" d="M203.611,317.33c0,0-25.573-11.396-50.514-14.664c-2.243-11.486-6.81-16.621-11.498-23.992
						c-12.896-7.055-54.039-8.494-67.1-2.262c-6.387,14.34-11.159,28.841-11.832,39.806c-0.674,10.965-0.55,22.069,11.832,31.853
						c12.383,9.784,31.993,8.348,42.114,8.348c10.122,0,69.011,0,69.011,0s-4.458,8.866-4.61,17.967
						c-0.152,9.101,2.831,38.811,2.831,38.811s14.262,3.799,35.948,2.563c4.281-19.606,9.064-38.455,10.671-49.511
						c1.607-11.055,2.636-21.631-1.745-30.395C225.303,329.02,219.245,323.344,203.611,317.33z"/>
					
						<path style="fill:none;stroke:#00826F;stroke-width:1.5;stroke-linecap:round;stroke-linejoin:round;stroke-miterlimit:10;" d="
						M185.119,357.507c0,0-3.953,7.78-4.105,16.881c-0.152,9.101,2.831,38.811,2.831,38.811"/>
					<g>
						
							<path style="fill:none;stroke:#00826F;stroke-width:1.5;stroke-linecap:round;stroke-linejoin:round;stroke-miterlimit:10;" d="
							M145.185,286.741c-2.667-1.327-9.149-3.011-13.628-4.069c-9.831-2.322-30.451-0.253-42.005,6.926
							c-7.842-5.493-13.019-7.641-17.826-7.641"/>
						
							<path style="fill:none;stroke:#00826F;stroke-width:1.5;stroke-linecap:round;stroke-linejoin:round;stroke-miterlimit:10;" d="
							M127.74,273.819c6.434,11.829,9.065,21.484,9.381,25.651c4.426,0.832,4.68,4.638,4.763,5.88
							c3.662-0.973,6.026,2.696,5.858,5.007c0,0,25.061,3.048,58.219,17.229c7.295,3.12,18.802,11.06,17.631,27.508
							c-1.171,16.448-9.12,58.106-9.12,58.106"/>
						
							<path style="fill:none;stroke:#00826F;stroke-width:1.5;stroke-linecap:round;stroke-linejoin:round;stroke-miterlimit:10;" d="
							M153.627,302.737c-6.532-0.4-12.686,2.032-16.535,6.534"/>
					</g>
				</g>
				
					<line style="fill:none;stroke:#00826F;stroke-width:1.5;stroke-linecap:round;stroke-linejoin:round;stroke-miterlimit:10;" x1="185.119" y1="357.507" x2="209.225" y2="357.507"/>
				<path style="fill:none;stroke:#00826F;stroke-width:1.5;stroke-linecap:round;stroke-linejoin:round;stroke-miterlimit:10;" d="
					M89.552,289.598c-2.583,20.043-2.869,36.517,8.161,52.022c11.03,15.505,36.369,14.438,51.238,14.438"/>
				<path style="fill:none;stroke:#00826F;stroke-width:1.5;stroke-linecap:round;stroke-linejoin:round;stroke-miterlimit:10;" d="
					M117.574,324.986c-1.535,1.423-2.927,2.362-3.761,2.329c-2.11-0.085-12.97-6.363-17.999-12.745
					c-1.296-9.401,0.286-19.119,0.286-19.119l24.489-0.499c0,0,2.912,12.028,4.773,18.949
					C124.858,316.599,120.882,321.919,117.574,324.986"/>
				<path style="fill:none;stroke:#00826F;stroke-width:1.5;stroke-linecap:round;stroke-linejoin:round;stroke-miterlimit:10;" d="
					M62.751,315.11c0,0,4.973,8.426,7.325,7.318c2.352-1.108,10.385-7.486,10.522-9.482c0.137-1.995,0.46-11.902,1.481-17.995
					l-13.87-2.769"/>
			</g>
			<g id="Head_00000152232753458557350710000008122371998083707065_">
				<g id="Hair_00000075163416355371560340000002516626800921607555_">
					<path style="fill:#303030;" d="M108.464,183.514c-3.692-0.608-13.233-10.773-15.024-24.551
						c-2.646-20.35,20.877-32.977,38.723-25.841c2.49-0.276,6.972-1.333,13.918,2.153c10.466,5.253,13.445,20.076,3.431,27.267
						c-11.836,8.501-25.202,14.58-38.474,20.605C110.143,183.552,109.285,183.649,108.464,183.514z"/>
				</g>
				<g>
					<path style="fill:#FFC4B0;" d="M148.719,167.568c0,0-0.625-3.604-0.799-7.157c-0.099-2.034,0.023-4.104-0.434-7.82
						c-0.563-4.567-3.871-10.312-10.033-11.682c4.001,20.598-15.166,19.193-15.166,19.193l-4.726,11.389
						c-1.671,3.641-3.389,10.01-12.188,10.331l-5.841,12.065c3.825,12.449,21.628,11.945,26.996,7.597l-1.464-4.788l0.687-10.871
						c6.511,2.631,13.547,4.192,17.959,2.035c2.282-1.116,4.094-3.874,4.645-7.662C148.906,176.407,149.206,168.626,148.719,167.568
						z"/>
				</g>
				<g>
					
						<path style="fill:#FFC4B0;stroke:#303030;stroke-width:1.5;stroke-linecap:round;stroke-linejoin:round;stroke-miterlimit:10;" d="
						M122.287,160.102c-1.39-2.06-4.34-3.614-7.899-2.6c-3.214,0.916-5.157,3.955-4.948,7.105c0.206,3.115,2.403,5.451,4.997,6.528
						c3.17,1.316,5.747,0.384,7.699-0.867"/>
					<g>
						
							<path style="fill:none;stroke:#303030;stroke-width:1.5;stroke-linecap:round;stroke-linejoin:round;stroke-miterlimit:10;" d="
							M114.122,164.279c0.57-1.455,1.783-2.278,3.103-2.105c1.32,0.172,2.703,1.335,3.538,2.973"/>
						
							<path style="fill:none;stroke:#303030;stroke-width:1.5;stroke-linecap:round;stroke-linejoin:round;stroke-miterlimit:10;" d="
							M116.891,165.451c0.215-0.669,0.641-1.136,1.126-1.431c0.485-0.295,1.057-0.396,1.599-0.441"/>
					</g>
				</g>
				<g>
					<g>
						<g>
							<path style="fill:#FFFFFF;" d="M135.481,160.797c0,0,1.42-1.424,3.299-2.26c1.431-0.637,3.446-0.426,4.155,0.109
								c0.367,0.502,0.536,1.355-0.027,3.113C141.501,163.304,138.262,162.521,135.481,160.797z"/>
						</g>
						<path style="fill:#FF95FB;" d="M140.06,158.21c0.461-0.079,0.941-0.108,1.456-0.074c0.439,0.029,1.574,0.69,1.792,0.13
							c0.167-0.43-0.072-1.488-0.372-1.71c-1.801-1.33-4.167-0.642-5.933,0.963c-0.557,0.506-1.766,1.94-1.766,3.277
							c0.173-0.494,1.727-1.388,2.169-1.614C138.305,158.723,139.145,158.367,140.06,158.21z"/>
						<path style="fill:#303030;" d="M143.385,161.789c-0.605,1.072-1.726,1.325-2.503,0.566c-0.777-0.759-0.916-2.243-0.31-3.315
							c0.606-1.072,1.727-1.325,2.504-0.566C143.852,159.233,143.991,160.717,143.385,161.789z"/>
						<polygon style="fill:#FFFFFF;" points="140.177,159.46 141.979,160.415 140.047,160.738 						"/>
						
							<path style="fill:none;stroke:#303030;stroke-width:1.5;stroke-linecap:round;stroke-linejoin:round;stroke-miterlimit:10;" d="
							M142.935,158.646c-2.544-0.933-5.204-0.065-7.454,2.151"/>
						
							<path style="fill:none;stroke:#303030;stroke-width:1.5;stroke-linecap:round;stroke-linejoin:round;stroke-miterlimit:10;" d="
							M145.046,158.003c-0.693,0.817-1.687,0.743-2.868,0.532"/>
					</g>
					
						<path style="fill:#FFC4B0;stroke:#303030;stroke-width:1.5;stroke-linecap:round;stroke-linejoin:round;stroke-miterlimit:10;" d="
						M148.702,171.49c2.542-0.304,4.622-2.528,2.972-4.75c-1.403-1.889-3.755-6.329-4.11-8.388"/>
					<g>
						<g>
							<path style="fill:#303030;" d="M146.462,175.969c-2.023,0.061-4.037-0.629-5.566-1.967c-0.305-0.267-0.761-0.3-1.061,0
								c-0.272,0.272-0.306,0.793,0,1.061c1.824,1.595,4.198,2.479,6.627,2.406C147.425,177.44,147.429,175.94,146.462,175.969
								L146.462,175.969z"/>
						</g>
					</g>
					
						<path style="fill:none;stroke:#303030;stroke-width:1.5;stroke-linecap:round;stroke-linejoin:round;stroke-miterlimit:10;" d="
						M143.179,151.308c-4.081-0.565-7.177,0.344-9.096,3.071"/>
				</g>
				<path style="fill:#303030;" d="M121.06,182.919c0.516,1.915,2.346,3.872,4.549,5.166l0.143-2.261
					C124.254,185.268,121.841,183.895,121.06,182.919z"/>
			</g>
			
				<path id="Chest_00000078021809890616460460000002022740545296707992_" style="fill:#FFFFFF;stroke:#303030;stroke-width:1.5;stroke-linecap:round;stroke-linejoin:round;stroke-miterlimit:10;" d="
				M82.08,196.944c-10.398,5.678-12.175,21.269-8.815,42.975c4.521,29.21-3.865,36.012,0.511,38.143c0,0,14.202-1.14,34.681-1.649
				c19.404-0.482,30.774,3.813,35.168,5.351c4.555-2.598-3.659-17.38,4.752-22.811c14.516-9.372,7.502-47.19-15.111-64.775
				C118.546,192.28,92.478,191.266,82.08,196.944z"/>
			<g id="Arm_00000034798028837532123140000018232104230133474442_">
				<g>
					<path style="fill:#FFC4B0;" d="M173.092,227.879c-1.772,5.594-12.879,38.506-12.879,38.506
						c1.782,5.81,4.77,16.29,18.712,15.079c9.643-3.769,10.542-14.439,11.878-30.257c0.947-11.208,1.236-21.221,1.876-25.595
						c0.493-3.365,0.856-5.18,4.766-9.796c3.052-3.603,6.2-6.814,7.526-8.788c0.809-1.204,1.783-2.939,2.596-5.211
						c1.035-2.895,1.837-4.995,2.222-6.137c1.287-3.812,1.901-4.795,0.997-5.381c-2.208-1.43-4.159,0.613-5.259,2.578
						c-0.88,1.571-2.35,4.421-3.336,6.134c0,0-1.531,1.598-2.275,2.213c0.382-1.167,1.708-3.431,0.301-4.137
						c-0.778-0.391-1.792-0.469-3.099,0.618c0,0-1.993-3.413-2.368-4.003c-0.918-1.442-1.486-2.68-3.489-3.867
						c-2.072-1.228-3.196-1.669-5.007-2.468c-0.863-0.381-1.53,0.021-1.705,0.51c-0.374,1.047-0.193,1.888,0.366,2.719
						c0.704,1.049,2.706,2.1,3.615,2.975c0.866,0.834,1.115,1.449,2.634,5.116c-2.396-3.056-2.491-3.677-4.309-4.663
						c-1.076-0.584-4.017-2.115-5.61-2.58c-0.839-0.245-1.737,1.055-0.846,2.623c0.684,1.202,2.016,1.778,2.526,2.132
						c0.484,0.337,1.25,0.648,1.959,1.343c0.495,0.485,1.739,3.23,2.389,4.79c-1.853-2.602-2.489-3.05-5.018-4.425
						c-2.036-1.106-2.322-0.765-2.498-0.635c-0.456,0.336-0.573,0.975-0.43,1.743c0.295,1.59,2.64,2.53,3.228,4.135
						c1.292,3.532,0.467,4.33-1.87,6.774c-1.642,1.718-5.069,3.563-5.56,8.076C174.875,220.3,174.657,222.941,173.092,227.879z"/>
					<g>
						<g>
							<g>
								<path style="fill:#303030;" d="M196.776,210.71c0.818-2.163,1.784-4.266,2.668-6.402c0.733-1.771,1.721-3.608,2.036-5.512
									c0.123-0.746,0.083-1.477-0.48-2.043c-0.48-0.482-1.19-0.691-1.858-0.688c-1.62,0.008-2.943,1.325-3.955,2.454
									c-1.285,1.433-2.438,3.006-3.626,4.52c-0.869,1.108-1.743,2.198-2.965,2.935c-1.432,0.865-3.034,1.206-4.596,1.743
									c-1.411,0.485-2.726,1.164-3.989,1.951c-2.837,1.768-4.875,4.372-5.554,7.689c-0.193,0.942,1.253,1.345,1.447,0.399
									c0.548-2.679,2.045-4.893,4.301-6.427c0.967-0.658,2.007-1.272,3.078-1.738c1.415-0.615,2.938-0.905,4.363-1.489
									c1.335-0.547,2.558-1.272,3.565-2.316c1.023-1.061,1.901-2.291,2.812-3.448c1.073-1.363,2.094-2.818,3.43-3.943
									c0.47-0.396,0.985-0.799,1.621-0.828c0.395-0.018,0.926,0.074,0.982,0.536c0.05,0.414-0.151,0.934-0.269,1.32
									c-0.15,0.491-0.334,0.971-0.528,1.445c-0.37,0.904-0.754,1.802-1.123,2.707c-0.92,2.252-1.944,4.459-2.805,6.735
									C194.988,211.215,196.437,211.606,196.776,210.71L196.776,210.71z"/>
							</g>
						</g>
						<g>
							<g>
								<path style="fill:#303030;" d="M187.203,193.298c0.144,0.107,0.287,0.214,0.429,0.323c0.122,0.092-0.083-0.066,0.067,0.052
									c0.054,0.042,0.107,0.085,0.16,0.128c0.208,0.168,0.41,0.342,0.6,0.531c0.083,0.082,0.163,0.167,0.24,0.255
									c0.044,0.05,0.086,0.102,0.129,0.152c0.082,0.097-0.083-0.126,0.036,0.048c0.148,0.217,0.288,0.436,0.412,0.668
									c0.072,0.136,0.139,0.275,0.204,0.415c0.033,0.071,0.064,0.142,0.095,0.214c0.021,0.048,0.018,0.042-0.007-0.018
									c0.019,0.045,0.037,0.09,0.055,0.135c0.156,0.391,0.3,0.786,0.437,1.185c0.404,1.176,0.766,2.367,1.134,3.555
									c0.285,0.919,1.733,0.527,1.446-0.399c-0.377-1.218-0.747-2.44-1.165-3.645c-0.265-0.764-0.546-1.537-0.931-2.25
									c-0.613-1.133-1.568-1.888-2.583-2.644c-0.325-0.242-0.838-0.053-1.026,0.269
									C186.71,192.654,186.877,193.055,187.203,193.298L187.203,193.298z"/>
							</g>
						</g>
						<g>
							<g>
								<path style="fill:#303030;" d="M183.649,197.474c0.308,0.248,0.62,0.493,0.909,0.764c0.258,0.242,0.417,0.423,0.562,0.643
									c0.389,0.592,0.617,1.262,0.837,1.93c0.399,1.211,0.841,2.427,1.147,3.665c0.232,0.937,1.679,0.54,1.446-0.399
									c-0.315-1.273-0.769-2.524-1.182-3.768c-0.257-0.774-0.534-1.573-0.998-2.25c-0.451-0.659-1.045-1.148-1.661-1.645
									c-0.315-0.254-0.753-0.308-1.061,0C183.386,196.676,183.332,197.219,183.649,197.474L183.649,197.474z"/>
							</g>
						</g>
					</g>
					<path style="fill:#FFC4B0;" d="M133.744,195.859c11.844-0.811,16.696,6.079,26.971,24.019
						c9.414,16.437,12.541,21.672,18.156,33.596c6.738,14.309,6.548,26.182-0.775,28.291c-6.805,1.96-17.636-0.335-24.469-14.011
						c-5.679-10.63-18.37-33.957-18.37-33.957L133.744,195.859z"/>
					
						<path style="fill:none;stroke:#303030;stroke-width:1.5;stroke-linecap:round;stroke-linejoin:round;stroke-miterlimit:10;" d="
						M160.715,219.878c9.414,16.437,10.628,18.719,16.111,29.323c3.591,6.944,4.982,11.109,5.707,17.536"/>
				</g>
				
					<path style="fill:#FFFFFF;stroke:#303030;stroke-width:1.5;stroke-linecap:round;stroke-linejoin:round;stroke-miterlimit:10;" d="
					M131.818,193.998c11.652,1.618,18.31,4.456,24.52,14.334c6.468,10.289,15.497,27.993,15.497,27.993s-3.608,5.895-14.637,11.579
					c-9.596,4.946-14.032,3.299-14.032,3.299l-11.121-20.521"/>
			</g>
			<g id="Hair_00000091005902886826096330000018443181362606200486_">
				<path style="fill:#303030;" d="M121.06,170.879c0,0,4.576,5.429,7.123,10.426c2.548,4.997,4.409,8.426,5.899,12.694
					c-1.289-0.267-6.724-0.295-6.724-0.295s1.69,15.706-5.07,27.686c-6.76,11.98-26.398,12.887-34.499,7.573
					c-11.27-7.393-15.3-20.03-6.928-40.408c2.558-6.227,4.907-13.233,6.519-20.374c3.664-16.228,6.667-32.214,22.045-34.647
					c0,0-9.336,20.972-3.684,30.115C112.899,175.23,121.06,170.879,121.06,170.879z"/>
				<g>
					<g>
						<path style="fill:#303030;" d="M120.682,171.905c6.545,3.414,10.299,10.523,9.964,17.829c-0.044,0.965,1.456,0.963,1.5,0
							c0.357-7.802-3.721-15.48-10.707-19.124C120.584,170.164,119.824,171.458,120.682,171.905L120.682,171.905z"/>
					</g>
				</g>
				<path style="fill:#00826F;" d="M121.493,170.606c0,1.557-1.262,2.819-2.819,2.819s-2.819-1.262-2.819-2.819
					c0-1.557,1.262-2.819,2.819-2.819S121.493,169.05,121.493,170.606z"/>
				<g>
					<g>
						<path style="fill:#303030;" d="M88.465,163.38c-1.072,4.202-2.652,8.263-4.365,12.241c-1.707,3.963-3.885,7.704-5.603,11.665
							c-3.125,7.205-5.178,15.1-3.479,22.94c0.851,3.929,2.655,7.646,5.461,10.55c0.672,0.695,1.732-0.366,1.061-1.061
							c-4.943-5.116-6.33-12.703-5.371-19.559c0.57-4.074,1.873-8.026,3.488-11.797c1.637-3.823,3.702-7.434,5.406-11.223
							c1.938-4.309,3.68-8.774,4.849-13.357C90.15,162.843,88.704,162.444,88.465,163.38L88.465,163.38z"/>
					</g>
				</g>
			</g>
		</g>
		<g id="Chair_00000078729736972150802170000012555622144172979091_">
			
				<line style="fill:none;stroke:#303030;stroke-width:1.5;stroke-linecap:round;stroke-linejoin:round;stroke-miterlimit:10;" x1="114.886" y1="361.522" x2="114.886" y2="476.389"/>
			<path style="fill:#FF95FB;" d="M39.406,356.674c-2.419,0-3.394,2.836-1.406,4.089c5.748,3.622,12.621,5.607,19.726,5.607h114.928
				c7.105,0,13.978-1.984,19.726-5.607c1.988-1.253,1.013-4.089-1.407-4.089H39.406z"/>
			<path style="fill:#FF95FB;" d="M114.207,338.09H43.995c-4.625,0-8.428-3.534-8.754-8.136l-6.138-86.497
				c-0.818-11.529,7.877-20.874,19.421-20.874h46.294c11.544,0,21.565,9.346,22.383,20.874l6.03,84.972
				C123.6,333.625,119.429,338.09,114.207,338.09z"/>
			<path style="fill:none;stroke:#303030;stroke-width:1.5;stroke-linecap:round;stroke-linejoin:round;stroke-miterlimit:10;" d="
				M45.278,255.936c0,12.867,4.021,66.204,6.169,93.77c0.733,9.407,8.579,16.664,18.014,16.664h7.714"/>
			<path style="fill:none;stroke:#303030;stroke-width:1.5;stroke-linecap:round;stroke-linejoin:round;stroke-miterlimit:10;" d="
				M103.019,255.936c0,12.867,4.021,66.204,6.169,93.77c0.733,9.407,8.579,16.664,18.014,16.664h7.714"/>
			
				<path style="fill:#303030;stroke:#303030;stroke-width:1.5;stroke-linecap:round;stroke-linejoin:round;stroke-miterlimit:10;" d="
				M114.886,453.973c0,11.806-20.306,19.851-53.659,19.851v2.565h53.659h53.659v-2.565
				C135.192,473.824,114.886,465.78,114.886,453.973z"/>
		</g>
	</g>
</g>
<g id="Books">
	<g id="Books_00000128479229440425148710000002892655108102867901_">
		<g id="Book_00000014636324730589385920000014815026601732608158_">
			
				<path style="fill:#F55571;stroke:#303030;stroke-width:1.5;stroke-linecap:round;stroke-linejoin:round;stroke-miterlimit:10;" d="
				M425.265,262.145c0.547,3.405,0.54,14.677-0.004,18.116c-0.116,0.736-0.755,1.277-1.5,1.277h-80.65v-2.328v-16.008v-2.328h80.655
				C424.509,260.873,425.147,261.411,425.265,262.145z"/>
			
				<rect x="358.305" y="263.202" transform="matrix(-1 -1.224647e-16 1.224647e-16 -1 719.7829 542.6094)" style="fill:#303030;stroke:#303030;stroke-width:1.5;stroke-linecap:round;stroke-linejoin:round;stroke-miterlimit:10;" width="3.174" height="16.206"/>
			
				<path style="fill:#FFFFFF;stroke:#303030;stroke-width:1.5;stroke-linecap:round;stroke-linejoin:round;stroke-miterlimit:10;" d="
				M331.137,263.097h29.065v16.113h-29.065C332.561,279.21,332.561,263.097,331.137,263.097z"/>
			
				<path style="fill:#303030;stroke:#303030;stroke-width:1.5;stroke-linecap:round;stroke-linejoin:round;stroke-miterlimit:10;" d="
				M328.201,263.202v-2.328h33.32c0.743,0,1.381,0.538,1.499,1.272c0.547,3.405,0.54,14.677-0.004,18.116
				c-0.116,0.736-0.755,1.277-1.5,1.277h-33.315v-2.328h32.001c0.921-2.697,0.907-13.267,0-16.008H328.201z"/>
			<g>
				
					<line style="fill:#303030;stroke:#303030;stroke-width:1.5;stroke-linecap:round;stroke-linejoin:round;stroke-miterlimit:10;" x1="355.106" y1="276.856" x2="332.232" y2="276.856"/>
				
					<line style="fill:#303030;stroke:#303030;stroke-width:1.5;stroke-linecap:round;stroke-linejoin:round;stroke-miterlimit:10;" x1="349.777" y1="273.054" x2="332.232" y2="273.054"/>
				
					<line style="fill:#303030;stroke:#303030;stroke-width:1.5;stroke-linecap:round;stroke-linejoin:round;stroke-miterlimit:10;" x1="355.106" y1="269.252" x2="332.232" y2="269.252"/>
				
					<line style="fill:#303030;stroke:#303030;stroke-width:1.5;stroke-linecap:round;stroke-linejoin:round;stroke-miterlimit:10;" x1="347.215" y1="265.45" x2="332.232" y2="265.45"/>
			</g>
			
				<rect x="359.195" y="263.5" transform="matrix(-1 -1.224647e-16 1.224647e-16 -1 719.2346 542.4115)" style="fill:#F55571;stroke:#303030;stroke-width:1.5;stroke-linecap:round;stroke-linejoin:round;stroke-miterlimit:10;" width="0.844" height="15.41"/>
		</g>
		<g id="Book_00000047056765978944595090000009709101772805745540_">
			
				<path style="fill:#303030;stroke:#303030;stroke-width:1.5;stroke-linecap:round;stroke-linejoin:round;stroke-miterlimit:10;" d="
				M337.938,240.818c-0.626,3.897-0.618,14.658,0.004,18.594c0.133,0.842,0.864,1.461,1.716,1.461h71.63v-4.529v-12.454v-4.529
				h-71.635C338.803,239.362,338.073,239.978,337.938,240.818z"/>
			
				<polygon style="fill:#303030;stroke:#303030;stroke-width:1.5;stroke-linecap:round;stroke-linejoin:round;stroke-miterlimit:10;" points="
				367.456,258.435 371.088,256.571 369.224,243.891 367.456,243.891 			"/>
			
				<path style="fill:#FFFFFF;stroke:#303030;stroke-width:1.5;stroke-linecap:round;stroke-linejoin:round;stroke-miterlimit:10;" d="
				M424.993,243.771h-56.076v12.573h56.076C423.035,256.344,423.035,243.771,424.993,243.771z"/>
			
				<path style="fill:#00826F;stroke:#303030;stroke-width:1.5;stroke-linecap:round;stroke-linejoin:round;stroke-miterlimit:10;" d="
				M428.354,243.891v-4.529h-62.81c-0.851,0-1.581,0.616-1.716,1.456c-0.626,3.897-0.618,14.658,0.005,18.594
				c0.133,0.842,0.864,1.461,1.716,1.461h62.805v-4.529h-59.437c-1.053-3.087-1.038-9.316,0-12.454H428.354z"/>
			
				<line style="fill:#303030;stroke:#303030;stroke-width:1.5;stroke-linecap:round;stroke-linejoin:round;stroke-miterlimit:10;" x1="375.255" y1="247.158" x2="423.532" y2="247.158"/>
			
				<line style="fill:#303030;stroke:#303030;stroke-width:1.5;stroke-linecap:round;stroke-linejoin:round;stroke-miterlimit:10;" x1="383.304" y1="253.367" x2="423.532" y2="253.367"/>
			
				<rect x="369.102" y="244.233" style="fill:#F55571;stroke:#303030;stroke-width:1.5;stroke-linecap:round;stroke-linejoin:round;stroke-miterlimit:10;" width="0.966" height="11.769"/>
		</g>
	</g>
</g>
<g id="Backpack_00000026143181737941806790000005659453204979247022_">
	<g id="Backpack">
		<path style="fill:none;stroke:#00826F;stroke-width:4;stroke-miterlimit:10;" d="M369.947,375.675
			c7.207,0,6.786,4.565,8.919,17.538c2.133,12.974,5.251,45.456,6.698,56.475c1.505,11.461,3.579,14.278,13.214,16.843
			c5.727,1.525,7.43,2.902,7.82,5.649c0.173,1.217-0.801,2.298-2.03,2.298h-31.738"/>
		<path style="fill:#00826F;" d="M368.745,366.571c-0.393-2.439-2.638-4.235-5.283-4.235h-66.08c-2.645,0-4.891,1.797-5.283,4.236
			c-2.219,13.793-8.941,59.208-9.346,105.582c-0.021,2.396,2.044,4.353,4.613,4.353h10.015h10.015h46.049h10.016h10.014
			c2.569,0,4.634-1.957,4.614-4.353C377.685,425.682,370.965,380.347,368.745,366.571z"/>
		<path style="fill:#303030;" d="M363.462,362.337L363.462,362.337c-2.645,0-4.891,1.797-5.283,4.236
			c-2.219,13.793-8.941,59.208-9.346,105.582c-0.021,2.396,2.044,4.353,4.614,4.353h20.03c2.569,0,4.634-1.957,4.614-4.353
			c-0.405-46.473-7.125-91.809-9.345-105.584C368.351,364.133,366.106,362.337,363.462,362.337z"/>
		<path style="fill:none;stroke:#00826F;stroke-width:3;stroke-linecap:round;stroke-linejoin:round;stroke-miterlimit:10;" d="
			M308.375,361.418h3.018c1.73,0,3.132-1.402,3.132-3.132l0,0c0-1.73,1.402-3.132,3.132-3.132h25.692
			c1.73,0,3.132,1.402,3.132,3.132l0,0c0,1.73,1.402,3.132,3.132,3.132h2.415"/>
		
			<path style="fill:#00826F;stroke:#303030;stroke-width:1.5;stroke-linecap:round;stroke-linejoin:round;stroke-miterlimit:10;" d="
			M292.835,366.573c-3.1,11.714-7.898,33.692-10.444,61.148c-0.323,3.48,2.026,6.685,5.455,7.359
			c16.548,3.256,37.622,3.323,55.035-0.197c2.982-0.603,5.206-3.117,5.479-6.147c2.52-27.93,7.399-50.306,10.537-62.164"/>
		<g>
			<path style="fill:#303030;" d="M294.814,420.773c0,0.747-0.609,1.3-1.36,1.234c-0.751-0.066-1.36-0.725-1.36-1.473
				c0-0.748,0.609-1.3,1.36-1.234C294.205,419.366,294.814,420.026,294.814,420.773z"/>
			<path style="fill:none;stroke:#FFFFFF;stroke-width:1.5;stroke-linecap:round;stroke-linejoin:round;stroke-miterlimit:10;" d="
				M296.837,430.831l-6.767-0.593c-1.111-0.097-2.012-1.073-2.012-2.179v-0.81c0-1.106,0.901-1.924,2.012-1.826l6.767,0.593
				c1.111,0.097,2.012,1.073,2.012,2.179v0.81C298.849,430.111,297.949,430.929,296.837,430.831z"/>
			
				<path style="fill:#00826F;stroke:#303030;stroke-width:1.5;stroke-linecap:round;stroke-linejoin:round;stroke-miterlimit:10;" d="
				M290.48,448.333c-0.046-6.161-0.049-13.645,0.052-19.259l5.756,0.505c-0.054,5.333,0.015,12.862,0.018,19.243
				c0.001,1.599-1.301,2.779-2.907,2.642l0,0C291.798,451.328,290.492,449.929,290.48,448.333z"/>
			<path style="fill:#303030;" d="M294.814,447.955c0,0.748-0.609,1.3-1.36,1.234c-0.751-0.066-1.36-0.725-1.36-1.473
				c0-0.748,0.609-1.3,1.36-1.234C294.205,446.548,294.814,447.208,294.814,447.955z"/>
		</g>
		<g>
			<path style="fill:#303030;" d="M336.256,419.914c0,0.748,0.609,1.3,1.36,1.234c0.751-0.066,1.36-0.725,1.36-1.473
				c0-0.748-0.609-1.3-1.36-1.234C336.865,418.507,336.256,419.167,336.256,419.914z"/>
			<path style="fill:none;stroke:#FFFFFF;stroke-width:1.5;stroke-linecap:round;stroke-linejoin:round;stroke-miterlimit:10;" d="
				M334.233,429.973l6.767-0.593c1.111-0.097,2.012-1.073,2.012-2.179v-0.81c0-1.106-0.901-1.924-2.012-1.826l-6.767,0.593
				c-1.111,0.098-2.012,1.073-2.012,2.179v0.81C332.22,429.252,333.121,430.07,334.233,429.973z"/>
			
				<path style="fill:#00826F;stroke:#303030;stroke-width:1.5;stroke-linecap:round;stroke-linejoin:round;stroke-miterlimit:10;" d="
				M340.59,447.474c0.046-6.161,0.049-13.645-0.052-19.259l-5.756,0.505c0.054,5.333-0.015,12.862-0.018,19.243
				c-0.001,1.599,1.301,2.779,2.907,2.642l0,0C339.272,450.469,340.578,449.07,340.59,447.474z"/>
			<path style="fill:#303030;" d="M336.256,447.097c0,0.747,0.609,1.3,1.36,1.234c0.751-0.066,1.36-0.725,1.36-1.473
				c0-0.748-0.609-1.3-1.36-1.234C336.865,445.69,336.256,446.349,336.256,447.097z"/>
		</g>
		<path style="fill:#303030;" d="M321.189,431.735h-11.373c-0.969,0-1.754-0.785-1.754-1.754l0,0c0-0.969,0.785-1.754,1.754-1.754
			h11.373c0.969,0,1.754,0.785,1.754,1.754l0,0C322.943,430.949,322.157,431.735,321.189,431.735z"/>
	</g>
</g>
<g id="Arrow">
	
		<path id="Cursor" style="fill:#00826F;stroke:#303030;stroke-width:1.5;stroke-linecap:round;stroke-linejoin:round;stroke-miterlimit:10;" d="
		M447.807,199.031h16.147l-37.771-38.368v54.054l11.472-11.472l6.75,16.51c0.87,2.128,2.924,3.417,5.089,3.417
		c0.692,0,1.397-0.132,2.078-0.41c2.809-1.148,4.156-4.357,3.007-7.167L447.807,199.031z"/>
</g>
<g id="Speech_Bubble">
	<g id="Speech_Bubble_00000058556240974149174560000002615672361493589161_">
		
			<path id="Speech_Bubble_00000133501906638533611790000007859110825599100820_" style="fill:#FFFFFF;stroke:#303030;stroke-width:1.5;stroke-linecap:round;stroke-linejoin:round;stroke-miterlimit:10;" d="
			M82.156,143.406c-1.783-2.488-3.661-7.923-1.756-11.181l-0.002,0c0.017-0.014,0.032-0.027,0.05-0.041
			c7.164-0.972,14.006-4.479,19.014-10.458c10.667-12.737,8.99-31.71-3.746-42.377c-12.737-10.668-31.71-8.99-42.377,3.746
			c-10.668,12.737-8.99,31.709,3.746,42.377c3.799,3.182,8.157,5.241,12.68,6.26c1.368,4.129,3.701,7.364,7.108,10.1
			C80.822,145.004,83.062,144.671,82.156,143.406z"/>
		<path id="Check" style="fill:#00826F;" d="M72.597,117.492c-1.092,0-2.144-0.419-2.938-1.176l-9.045-8.622
			c-1.702-1.623-1.766-4.317-0.144-6.019c1.62-1.702,4.316-1.769,6.019-0.144l5.823,5.551l14.653-16.801
			c1.547-1.771,4.235-1.957,6.007-0.41c1.771,1.546,1.955,4.235,0.41,6.007l-17.577,20.154c-0.764,0.876-1.852,1.401-3.013,1.454
			C72.728,117.49,72.662,117.492,72.597,117.492z"/>
	</g>
</g>
</svg>
